<?xml version="1.0" encoding="UTF-8" standalone="no"?>
<svg width="46px" height="46px" viewBox="0 0 46 46" version="1.1" xmlns="http://www.w3.org/2000/svg" xmlns:xlink="http://www.w3.org/1999/xlink" xmlns:sketch="http://www.bohemiancoding.com/sketch/ns">
    <!-- Generator: Sketch 3.5.2 (25235) - http://www.bohemiancoding.com/sketch -->
    <title>gear.png</title>
    <desc>Created with Sketch.</desc>
    <defs></defs>
    <g id="Page-1" stroke="none" stroke-width="1" fill="none" fill-rule="evenodd" sketch:type="MSPage">
        <g id="Glyphish-WatchKit-38mm" sketch:type="MSArtboardGroup" transform="translate(-667.000000, -501.000000)" fill="#000000">
            <g id="gear.png" sketch:type="MSLayerGroup" transform="translate(667.000000, 501.000000)">
                <g id="Gear.png" sketch:type="MSShapeGroup">
                    <path d="M23,15 C18.589,15 15,18.589 15,23 C15,27.411 18.589,31 23,31 C27.411,31 31,27.411 31,23 C31,18.589 27.411,15 23,15 L23,15 Z M23,27 C20.794,27 19,25.206 19,23 C19,20.795 20.794,19 23,19 C25.205,19 27,20.795 27,23 C27,25.206 25.205,27 23,27 L23,27 Z M43.65,18.072 L40.047,17.271 C39.785,16.49 39.471,15.729 39.106,14.995 L41.086,11.884 C41.847,10.69 41.679,9.155 40.677,8.151 L37.847,5.322 C36.876,4.351 35.271,4.177 34.117,4.914 L31.005,6.894 C30.271,6.529 29.51,6.214 28.729,5.953 L27.929,2.35 C27.621,0.966 26.417,0 25,0 L21,0 C19.583,0 18.378,0.966 18.071,2.35 L17.27,5.953 C16.49,6.215 15.729,6.529 14.995,6.894 L11.884,4.914 C10.727,4.178 9.124,4.352 8.151,5.323 L5.322,8.153 C4.32,9.155 4.153,10.69 4.913,11.883 L6.894,14.995 C6.529,15.729 6.214,16.49 5.953,17.271 L2.35,18.071 C0.967,18.379 0,19.583 0,21 L0,25 C0,26.417 0.967,27.622 2.35,27.929 L5.953,28.73 C6.215,29.51 6.529,30.271 6.894,31.005 L4.914,34.116 C4.153,35.311 4.32,36.845 5.323,37.849 L8.153,40.678 C9.123,41.649 10.723,41.824 11.883,41.087 L14.995,39.106 C15.729,39.471 16.49,39.786 17.27,40.047 L18.071,43.65 C18.378,45.034 19.583,46 21,46 L25,46 C26.417,46 27.621,45.034 27.928,43.651 L28.729,40.047 C29.51,39.785 30.271,39.471 31.005,39.106 L34.117,41.087 C34.599,41.393 35.156,41.556 35.727,41.556 C36.528,41.556 37.281,41.244 37.849,40.677 L40.678,37.848 C41.679,36.845 41.847,35.311 41.086,34.117 L39.106,31.005 C39.471,30.271 39.786,29.51 40.047,28.73 L43.65,27.929 C45.033,27.622 46,26.417 46,25 L46,21 C46,19.583 45.033,18.379 43.65,18.072 L43.65,18.072 Z M42,24.198 L36.84,25.344 L36.531,26.528 C36.206,27.778 35.713,28.971 35.064,30.074 L34.444,31.129 L37.282,35.588 L35.588,37.282 L31.129,34.444 L30.074,35.064 C28.97,35.712 27.778,36.207 26.528,36.532 L25.344,36.84 L24.198,42 L21.802,42 L20.656,36.84 L19.472,36.532 C18.222,36.207 17.029,35.713 15.926,35.064 L14.87,34.444 L10.412,37.282 L8.718,35.588 L11.556,31.129 L10.936,30.074 C10.288,28.971 9.794,27.778 9.469,26.528 L9.16,25.345 L4,24.198 L4,21.802 L9.16,20.655 L9.469,19.471 C9.794,18.221 10.287,17.029 10.936,15.925 L11.556,14.87 L8.718,10.411 L10.412,8.717 L14.87,11.555 L15.926,10.935 C17.029,10.287 18.222,9.793 19.472,9.468 L20.656,9.159 L21.802,4 L24.198,4 L25.344,9.16 L26.528,9.469 C27.778,9.794 28.97,10.287 30.074,10.936 L31.129,11.556 L35.588,8.718 L37.282,10.412 L34.444,14.871 L35.064,15.926 C35.712,17.03 36.206,18.222 36.531,19.472 L36.84,20.656 L42,21.803 L42,24.198 L42,24.198 Z" id="Shape"></path>
                </g>
            </g>
        </g>
    </g>
</svg>